<?xml version="1.0" standalone="no"?>
<!DOCTYPE svg PUBLIC "-//W3C//DTD SVG 20010904//EN"
 "http://www.w3.org/TR/2001/REC-SVG-20010904/DTD/svg10.dtd">
<svg version="1.0" xmlns="http://www.w3.org/2000/svg"
 width="205.000000pt" height="205.000000pt" viewBox="0 0 205.000000 205.000000"
 preserveAspectRatio="xMidYMid meet">
<metadata>
Created by potrace 1.11, written by Peter Selinger 2001-2013
</metadata>
<g transform="translate(0.000000,205.000000) scale(0.100000,-0.100000)"
fill="#000000" stroke="none">
<path d="M920 2044 c-14 -2 -62 -11 -108 -20 -67 -14 -82 -20 -78 -33 15 -55
169 -557 172 -562 2 -3 28 -1 59 4 l55 10 0 304 0 303 -37 -1 c-21 -1 -49 -3
-63 -5z"/>
<path d="M1030 1748 l0 -304 59 -12 c72 -13 155 -48 147 -61 -4 -5 -1 -13 5
-17 8 -4 9 -3 5 4 -11 18 10 14 25 -5 12 -15 12 -16 -1 -8 -13 8 -13 7 -1 -8
15 -18 26 -23 16 -7 -12 19 12 10 33 -13 24 -26 29 -43 10 -31 -9 5 -9 2 1 -9
15 -19 26 -23 15 -5 -4 7 -3 8 5 4 18 -11 43 -65 35 -78 -4 -6 -3 -8 4 -4 13
8 26 -29 16 -45 -4 -7 -3 -9 4 -5 5 3 12 1 14 -4 2 -6 119 18 297 61 l293 72
-6 29 c-9 48 -64 176 -102 241 -165 282 -467 472 -796 502 l-78 7 0 -304z"/>
<path d="M628 1966 c-140 -61 -237 -127 -338 -230 l-54 -56 24 -24 c14 -14
119 -102 235 -195 l209 -171 41 39 c22 21 64 51 93 65 28 15 52 30 52 35 0 8
-37 131 -141 474 -16 53 -33 97 -37 97 -4 0 -42 -15 -84 -34z"/>
<path d="M176 1592 c-48 -72 -100 -178 -111 -224 l-7 -26 264 -85 c144 -47
273 -88 284 -91 20 -6 35 15 82 115 3 6 -440 371 -457 377 -5 2 -30 -28 -55
-66z"/>
<path d="M1013 1423 c9 -2 23 -2 30 0 6 3 -1 5 -18 5 -16 0 -22 -2 -12 -5z"/>
<path d="M47 1323 c-3 -5 -13 -44 -23 -88 -19 -81 -27 -315 -12 -331 6 -5 588
63 594 70 1 0 4 40 7 88 l6 87 -279 91 c-153 49 -281 90 -283 90 -3 0 -8 -3
-10 -7z"/>
<path d="M1719 1187 l-286 -70 5 -73 c4 -58 0 -88 -18 -144 -13 -39 -21 -72
-19 -74 15 -12 508 -276 516 -276 15 0 68 125 94 217 27 99 36 295 19 410 -7
46 -15 83 -19 82 -3 -1 -135 -33 -292 -72z"/>
<path d="M622 1060 c0 -14 2 -19 5 -12 2 6 2 18 0 25 -3 6 -5 1 -5 -13z"/>
<path d="M1422 1025 c0 -16 2 -22 5 -12 2 9 2 23 0 30 -3 6 -5 -1 -5 -18z"/>
<path d="M622 990 c0 -14 2 -19 5 -12 2 6 2 18 0 25 -3 6 -5 1 -5 -13z"/>
<path d="M285 921 l-270 -36 3 -40 c5 -58 68 -240 107 -311 227 -407 686 -609
1138 -503 81 19 87 22 81 42 -4 12 -48 141 -98 287 -89 259 -92 265 -116 260
-14 -3 -68 -5 -120 -5 -83 0 -103 4 -154 28 -33 15 -79 43 -102 62 l-43 35
-214 -189 c-118 -103 -220 -191 -226 -195 -35 -22 11 21 209 195 121 106 220
196 220 201 0 4 -13 27 -28 51 -24 38 -38 73 -58 145 -5 16 -16 15 -329 -27z"/>
<path d="M1380 812 c0 -14 -99 -122 -112 -122 -5 0 -6 6 -2 13 4 7 3 9 -2 4
-5 -5 -9 -14 -9 -20 0 -6 -19 -20 -42 -31 -24 -12 -43 -24 -43 -28 0 -9 190
-561 195 -566 2 -2 46 16 97 40 116 56 236 144 314 232 61 70 134 173 134 191
0 5 -116 73 -257 150 -292 159 -273 150 -273 137z"/>
<path d="M710 767 c0 -2 15 -16 33 -33 l32 -29 -29 33 c-28 30 -36 37 -36 29z"/>
<path d="M978 623 c7 -3 16 -2 19 1 4 3 -2 6 -13 5 -11 0 -14 -3 -6 -6z"/>
<path d="M1048 623 c6 -2 18 -2 25 0 6 3 1 5 -13 5 -14 0 -19 -2 -12 -5z"/>
</g>
</svg>
